<svg width="100" height="100" viewBox="0 0 100 100" fill="none" xmlns="http://www.w3.org/2000/svg">
  <!-- Phone handset - vertical, centered -->
  <path d="M32 30 C32 27, 34 25, 37 25 L43 25 C46 25, 48 27, 48 30 L48 38 C48 41, 46 43, 43 43 L40 43 C38 43, 37 44, 37 46 L37 54 C37 56, 38 57, 40 57 L43 57 C46 57, 48 59, 48 62 L48 70 C48 73, 46 75, 43 75 L37 75 C34 75, 32 73, 32 70 Z" fill="#F5F5F5" stroke="#9B9B9B" stroke-width="2.5" stroke-linejoin="round"/>
  <!-- Signal waves top-right -->
  <path d="M55 28 C61 22, 69 22, 75 28" stroke="#D4D4D4" stroke-width="2" stroke-linecap="round" fill="none"/>
  <path d="M51 20 C60 11, 73 11, 82 20" stroke="#E5E5E5" stroke-width="2" stroke-linecap="round" fill="none"/>
</svg>
