<svg width="100" height="100" viewBox="0 0 100 100" fill="none" xmlns="http://www.w3.org/2000/svg">
  <!-- Inbox -->
  <path d="M20 38 L10 68 L10 78 Q10 82, 14 82 L86 82 Q90 82, 90 78 L90 68 L80 38 Z" fill="#F5F5F5" stroke="#9B9B9B" stroke-width="1.5"/>
  <path d="M10 68 L35 68 Q38 68, 39 71 L41 75 Q42 78, 45 78 L55 78 Q58 78, 59 75 L61 71 Q62 68, 65 68 L90 68" stroke="#D4D4D4" stroke-width="1.5" fill="none"/>
  <!-- Arrow down -->
  <path d="M50 12 L50 42" stroke="#9B9B9B" stroke-width="1.5" stroke-linecap="round"/>
  <path d="M43 35 L50 42 L57 35" stroke="#9B9B9B" stroke-width="1.5" stroke-linecap="round" stroke-linejoin="round" fill="none"/>
  <!-- Person dot -->
  <circle cx="50" cy="6" r="3" fill="none" stroke="#D4D4D4" stroke-width="1.5"/>
</svg>
