<svg width="100" height="100" viewBox="0 0 100 100" fill="none" xmlns="http://www.w3.org/2000/svg">
  <!-- Node 1 -->
  <rect x="8" y="22" width="26" height="20" rx="4" fill="#F5F5F5" stroke="#9B9B9B" stroke-width="1.5"/>
  <path d="M15 30 L28 30" stroke="#D4D4D4" stroke-width="1.5" stroke-linecap="round"/>
  <path d="M15 36 L24 36" stroke="#E5E5E5" stroke-width="1.5" stroke-linecap="round"/>
  <!-- Arrow 1 -->
  <path d="M34 32 L42 32" stroke="#9B9B9B" stroke-width="1.5" stroke-linecap="round"/>
  <path d="M39 29 L42 32 L39 35" stroke="#9B9B9B" stroke-width="1.5" stroke-linecap="round" stroke-linejoin="round" fill="none"/>
  <!-- Node 2 -->
  <rect x="44" y="22" width="26" height="20" rx="4" fill="#F5F5F5" stroke="#D4D4D4" stroke-width="1.5"/>
  <path d="M51 30 L64 30" stroke="#D4D4D4" stroke-width="1.5" stroke-linecap="round"/>
  <path d="M51 36 L60 36" stroke="#E5E5E5" stroke-width="1.5" stroke-linecap="round"/>
  <!-- Arrow down -->
  <path d="M57 42 L57 52" stroke="#9B9B9B" stroke-width="1.5" stroke-linecap="round"/>
  <path d="M54 49 L57 52 L60 49" stroke="#9B9B9B" stroke-width="1.5" stroke-linecap="round" stroke-linejoin="round" fill="none"/>
  <!-- Node 3 -->
  <rect x="44" y="55" width="26" height="20" rx="4" fill="#F5F5F5" stroke="#D4D4D4" stroke-width="1.5"/>
  <path d="M51 63 L64 63" stroke="#D4D4D4" stroke-width="1.5" stroke-linecap="round"/>
  <path d="M51 69 L60 69" stroke="#E5E5E5" stroke-width="1.5" stroke-linecap="round"/>
  <!-- Dashed plus node -->
  <rect x="76" y="22" width="18" height="20" rx="4" fill="white" stroke="#9B9B9B" stroke-width="1.5" stroke-dasharray="4 2"/>
  <path d="M85 28 L85 36 M81 32 L89 32" stroke="#9B9B9B" stroke-width="1.5" stroke-linecap="round"/>
  <!-- Arrow to plus -->
  <path d="M70 32 L74 32" stroke="#D4D4D4" stroke-width="1.5" stroke-linecap="round"/>
</svg>
